<?xml version="1.0" encoding="utf-8"?>
<!-- Generator: Adobe Illustrator 16.0.2, SVG Export Plug-In . SVG Version: 6.00 Build 0)  -->
<!DOCTYPE svg PUBLIC "-//W3C//DTD SVG 1.1//EN" "http://www.w3.org/Graphics/SVG/1.1/DTD/svg11.dtd">
<svg version="1.1" id="Layer_1" xmlns="http://www.w3.org/2000/svg" xmlns:xlink="http://www.w3.org/1999/xlink" x="0px" y="0px"
	 width="989.044px" height="487.187px" viewBox="0 0 989.044 487.187" enable-background="new 0 0 989.044 487.187"
	 xml:space="preserve">
<g>
	<path fill-rule="evenodd" clip-rule="evenodd" fill="#FEFEFE" d="M197.124,192.393c-23.829-0.003-47.659,0.055-71.487-0.078
		c-3.282-0.019-4.641,0.604-4.757,4.253c-0.217,6.811-1.315,13.59-1.634,20.4c-0.648,13.815-0.651,27.634,0.752,41.423
		c0.175,1.721,1.179,4.088-2.625,3.51c-19.754-3-38.15-9.09-53.441-22.585c-1.79-1.579-3.503-3.245-6.037-5.602
		c2.335,12.563-3.81,19.685-12.763,25.109c-8.62,5.221-18.186,8.094-27.863,10.598c-5.746,1.486-11.511,2.896-17.268,4.342
		c0.051,0.266,0.102,0.531,0.152,0.795c1.825,0,3.65,0,5.476,0c36.995,0,73.99,0.096,110.984-0.121
		c4.519-0.025,5.795,1.439,6.498,5.627c4.533,26.994,13.377,52.631,27.359,76.105c36.973,62.08,91.746,100.568,160.983,119.213
		c39.262,10.572,79.284,13.018,119.792,11.311c40.054-1.688,79.608-6.549,118.461-16.406
		c114.246-28.988,204.755-91.137,267.286-192.105c1.717-2.77,3.516-3.705,6.738-3.699c51.493,0.109,102.986,0.076,154.479,0.076
		c1.97,0,3.939,0,5.909,0c-1.729-1.207-3.573-1.732-5.436-2.18c-11.959-2.881-24.018-5.529-35.108-11.063
		c-10.903-5.441-19.925-12.389-17.468-27.899c-13.321,14.255-28.952,21.856-46.407,25.948c-17.36,4.068-34.887,5.223-53.156,2.854
		c10.04-18.351,18.844-36.404,26.349-55.064c0.844-2.098,2.01-2.752,4.125-2.594c13.188,0.99,26.285-0.038,39.282-2.213
		c42.751-7.15,74.37-29.129,92.154-69.466c0.788-1.788,1.047-2.829-0.893-4.057c-17.55-11.111-36.408-18.375-57.214-20.494
		c-18.952-1.932-37.513-0.06-55.945,4.909c-0.55-3.124-0.962-6.089-1.614-9c-0.69-3.08-1.5-6.143-2.446-9.153
		c-10.675-33.967-33.974-58.159-61.338-79.219c-1.714-1.319-2.603-0.52-3.696,0.683c-8.778,9.65-16.711,19.818-21.355,32.247
		c-4.758,12.731-7.517,25.852-8.317,39.385c-1.642,27.773,3.006,54.063,18.991,77.489c2.067,3.029,0.635,3.757-1.658,4.994
		c-19.099,10.309-39.537,16.469-60.904,19.718c-22.865,3.477-45.901,1.496-68.86,2.008c-1.589,0.036-3.016-0.02-3.269-2.042
		c0.288-6.819,0.826-13.639,0.824-20.458c-0.014-46.827-0.132-93.653-0.234-140.48c-0.041-18.777-10.637-29.409-29.268-29.409
		C496.09-0.001,360.925,0,225.76,0.001c-1.5,0-3.002-0.042-4.5,0.029c-12.319,0.585-22.041,8.934-24.666,20.999
		c-0.721,3.313-0.615,6.632-0.583,9.951C196.532,84.784,194.771,138.603,197.124,192.393z"/>
	<path fill-rule="evenodd" clip-rule="evenodd" fill="#0B3021" d="M197.124,192.393c-2.353-53.79-0.591-107.608-1.111-161.412
		c-0.032-3.319-0.138-6.638,0.583-9.951C199.219,8.964,208.941,0.615,221.26,0.03c1.497-0.071,3-0.029,4.5-0.029
		c135.165-0.001,270.33-0.002,405.496,0c18.631,0,29.227,10.632,29.268,29.409c0.103,46.827,0.221,93.653,0.234,140.48
		c0.002,6.819-0.536,13.639-0.824,20.458c-0.466,0.148-1.141,0.148-1.369,0.467c-7.127,9.943-17.31,12.543-28.854,12.538
		c-134.407-0.058-268.815-0.033-403.224-0.045c-10.089-0.001-19.478-2.015-26.738-9.801
		C199.06,192.77,198.251,192.168,197.124,192.393z M483.913,147.169c0,6.436,0.091,12.089-0.044,17.736
		c-0.057,2.358,1.176,3.085,3.108,3.745c7.677,2.621,15.592,3.533,23.614,3.078c25.524-1.448,37.333-13.44,38.56-38.864
		c0.715-14.817-0.201-29.628-0.142-44.441c0.012-2.813-1.726-6.896,4.081-5.852c1.008,0.182,1.377-1.273,1.802-2.158
		c1.725-3.6,3.344-7.255,5.19-10.79c1.132-2.167,0.481-2.851-1.728-3.24c-14.346-2.529-28.715-3.749-43.165-0.948
		c-20.907,4.053-32.46,16.843-33.095,36.554c-0.521,16.198,7.427,28.496,21.154,32.441c7.021,2.018,14.207,2.267,21.141-0.128
		c3.862-1.334,3.697,0.37,3.397,3.072c-0.99,8.918-5.667,13.859-14.553,15.141C503.205,153.96,493.751,151.789,483.913,147.169z
		 M298.674,82.901c0-15.658-0.13-31.317,0.093-46.972c0.054-3.831-1.089-4.941-4.792-4.671c-4.308,0.315-8.682,0.363-12.98-0.011
		c-3.985-0.348-4.709,1.289-4.608,4.836c0.231,8.155-0.026,16.324,0.125,24.483c0.054,2.925-0.452,4.469-3.83,3.609
		c-4.622-1.175-9.278-0.508-13.893,0.186c-18.06,2.716-29.45,16.381-29.781,35.667c-0.333,19.412,9.208,31.633,27.792,35.065
		c12.617,2.331,25.192,0.847,37.74-1.126c3.26-0.513,4.265-1.741,4.221-5.096C298.562,113.552,298.674,98.226,298.674,82.901z
		 M558.68,102.264c0.24,12.044,4.024,23.941,16.741,30.454c13.333,6.827,27.137,6.654,40.017-1.334
		c12.244-7.594,15.565-19.98,15.116-33.386c-0.483-14.453-5.875-26.307-20.442-31.968C583.304,55.612,558.788,72.243,558.68,102.264
		z M410.477,101.887c0,9.987,0.101,19.976-0.063,29.96c-0.047,2.876,0.854,3.722,3.668,3.597c4.817-0.215,9.666-0.283,14.475,0.015
		c3.489,0.217,4.482-0.849,4.434-4.384c-0.204-14.646-0.096-29.295-0.073-43.942c0.003-1.907-0.451-3.786,2.359-4.696
		c11.834-3.835,18.085,0.471,18.118,12.82c0.034,12.151,0.073,24.303-0.043,36.453c-0.025,2.676,0.532,3.878,3.528,3.74
		c5.149-0.237,10.318-0.138,15.477-0.031c2.16,0.044,3.344-0.287,3.308-2.916c-0.208-15.139-0.292-30.28-0.357-45.42
		c-0.066-15.52-10.398-21.286-21.629-22.782c-13.782-1.836-27.149,0.676-40.496,3.717c-2.796,0.637-2.723,2.335-2.717,4.407
		C410.491,82.245,410.477,92.065,410.477,101.887z M346.333,87.375c2.25-0.947,3.75-1.598,5.264-2.213
		c7.484-3.04,15.189-4.886,23.341-4.202c4.121,0.346,4.851,3.064,5.041,6.641c0.221,4.126-2.616,3.391-4.938,3.694
		c-7.77,1.015-15.522,2.091-22.535,5.965c-8.497,4.692-12.02,12.693-10.285,23.37c1.329,8.18,6.469,13.168,15.913,14.854
		c13.302,2.377,26.521,0.204,39.75-1.097c2.156-0.212,2.224-1.552,2.217-3.137c-0.071-16.643,0.168-33.294-0.314-49.925
		c-0.296-10.192-5.521-15.269-15.618-16.935c-11.123-1.835-21.796-0.01-32.373,3.541c-4.082,1.371-6.065,3.263-5.545,7.793
		C346.664,79.329,346.333,83.019,346.333,87.375z M289.944,156.22c6.743,3.21,12.74,6.017,18.687,8.923
		c1.846,0.902,3.169-0.08,4.633-0.838c10.859-5.618,17.27-14.599,18.763-26.59c2.889-23.19,0.78-46.522,1.412-69.782
		c0.065-2.399-1.099-2.689-3.037-2.656c-4.657,0.081-9.338,0.297-13.969-0.057c-4.059-0.311-5.318,0.831-5.284,5.1
		c0.144,18.129,0.02,36.264-0.299,54.391c-0.237,13.51-5.502,24.171-18.489,29.943C291.77,154.916,291.259,155.358,289.944,156.22z
		 M333.407,43.265c0-11.728,0-11.728-11.443-11.728c-10.703,0-10.703,0-10.703,11.532c0,11.163,0,11.163,11.009,11.163
		C333.407,54.232,333.407,54.232,333.407,43.265z"/>
	<path fill-rule="evenodd" clip-rule="evenodd" fill="#3A4E56" d="M197.124,192.393c1.127-0.225,1.936,0.377,2.625,1.115
		c7.26,7.786,16.649,9.8,26.738,9.801c134.408,0.012,268.816-0.013,403.224,0.045c11.545,0.005,21.728-2.595,28.854-12.538
		c0.229-0.318,0.903-0.318,1.369-0.467c0.253,2.022,1.68,2.078,3.269,2.042c22.959-0.512,45.995,1.469,68.86-2.008
		c21.367-3.249,41.806-9.409,60.904-19.718c2.293-1.237,3.726-1.965,1.658-4.994c-15.985-23.426-20.633-49.716-18.991-77.489
		c0.801-13.533,3.56-26.653,8.317-39.385c4.645-12.429,12.577-22.597,21.355-32.247c1.094-1.202,1.982-2.002,3.696-0.683
		c27.364,21.06,50.663,45.252,61.338,79.219c0.946,3.011,1.756,6.073,2.446,9.153c0.652,2.911,1.064,5.876,1.614,9
		c18.433-4.969,36.993-6.841,55.945-4.909c20.806,2.119,39.664,9.383,57.214,20.494c1.939,1.228,1.681,2.269,0.893,4.057
		c-17.784,40.337-49.403,62.315-92.154,69.466c-12.997,2.175-26.095,3.203-39.282,2.213c-2.115-0.158-3.281,0.496-4.125,2.594
		c-7.505,18.66-16.309,36.713-26.349,55.064c18.27,2.369,35.796,1.215,53.156-2.854c17.455-4.092,33.086-11.693,46.407-25.948
		c-2.457,15.51,6.564,22.458,17.468,27.899c11.091,5.533,23.149,8.182,35.108,11.063c1.862,0.447,3.707,0.973,5.436,2.18
		c-1.97,0-3.939,0-5.909,0c-51.493,0-102.986,0.033-154.479-0.076c-3.223-0.006-5.021,0.93-6.738,3.699
		c-62.531,100.969-153.04,163.117-267.286,192.105c-38.853,9.857-78.407,14.719-118.461,16.406
		c-40.508,1.707-80.53-0.738-119.792-11.311c-69.237-18.645-124.01-57.133-160.983-119.213
		c-13.981-23.475-22.826-49.111-27.359-76.105c-0.703-4.188-1.979-5.652-6.498-5.627c-36.994,0.217-73.989,0.121-110.984,0.121
		c-1.825,0-3.65,0-5.476,0c-0.051-0.264-0.102-0.529-0.152-0.795c5.757-1.445,11.522-2.855,17.268-4.342
		c9.677-2.504,19.243-5.377,27.863-10.598c8.954-5.424,15.099-12.546,12.763-25.109c2.534,2.356,4.248,4.022,6.037,5.602
		c15.291,13.496,33.687,19.585,53.441,22.585c3.804,0.578,2.8-1.789,2.625-3.51c-1.403-13.79-1.4-27.608-0.752-41.423
		c0.319-6.811,1.417-13.59,1.634-20.4c0.116-3.649,1.475-4.271,4.757-4.253C149.465,192.447,173.294,192.39,197.124,192.393z
		 M429.176,471.993c8.757-0.645,17.536-0.838,26.303-1.424c19.72-1.318,39.275-3.865,58.65-7.469
		c48.94-9.105,95.745-24.539,139.545-48.551c28.569-15.662,55.027-34.305,78.967-56.383c21.336-19.678,40.57-41.285,57.175-65.143
		c4.09-5.875,8.471-11.613,11.796-18.328c-27.993,0-55.306,0-82.618,0c-1.996-0.068-3.991-0.197-5.987-0.197
		c-176.977-0.01-353.953-0.01-530.93,0c-1.995,0.002-3.989,0.145-5.984,0.221c-11.972-0.082-23.944-0.115-35.914-0.277
		c-2.886-0.039-3.451,1.316-2.902,3.73c0.916,4.031,1.804,8.068,2.771,12.086c6.919,28.729,18.767,55.197,36.242,79.096
		c1.213,1.658,2.271,2.928,4.664,3.104c9.113,0.67,18.224,1.051,27.36,0.945c1.817-0.02,3.639,0.18,5.455,0.328
		c9.441,0.771,18.881,0.811,28.32-0.02c13.021-0.441,26.019-0.799,39.021-2.154c19.108-1.99,37.898-5.172,56.16-11.18
		c3.869-1.271,7.012-0.588,8.602,3.238c1.655,3.986-0.273,7.172-4.792,8.861c-2.783,1.043-5.577,2.059-8.366,3.086
		c-47.023,12.219-94.957,13.164-144.314,10.688c3.658,3.582,6.232,6.154,8.859,8.67c38.322,36.703,83.372,60.361,135.577,70.455
		C364.709,471.54,396.851,472.881,429.176,471.993z M168.076,207.368c-9.637-0.046-19.276,0.009-28.91-0.197
		c-3.104-0.066-4.333,0.813-4.595,4.08c-1.335,16.599-0.968,33.159,0.468,49.724c0.245,2.826,2.161,2.447,3.948,2.451
		c11.144,0.025,22.195-0.932,33.117-3.207c14.672-2.719,28.802-6.898,41.07-15.798c1.89-1.371,2.831-0.854,4.104,0.579
		c5.479,6.167,12.638,9.651,20.211,12.411c14.05,5.121,28.718,7.143,43.521,7.883c15.632,0.781,31.291,0.709,46.91-0.855
		c19.748-1.977,39.273-5.025,57.905-12.18c7.641-2.935,15.146-6.348,20.031-13.417c1.747-2.527,2.649-0.7,3.753,0.364
		c10.444,10.071,23.05,16.169,36.795,20.285c23.06,6.904,46.585,7.844,70.196,4.58c21.724-3,42.236-9.527,58.443-25.49
		c1.614-1.591,2.303-0.952,3.37,0.548c3.379,4.749,8.152,7.745,13.292,10.278c6.902,3.402,14.163,5.871,21.573,7.748
		c33.912,8.594,68.343,10.449,103.055,6.984c8.708-0.869,17.523-2.002,25.704-5.633c9.325-1.979,17.577-6.039,24.243-12.928
		c1.794-1.854,2.902-2.326,5.272-0.615c10.439,7.536,22.505,11.292,34.838,14.336c2.98,0.734,4.832-0.084,6.443-2.936
		c11.484-20.323,21.26-41.442,29.692-63.182c1.18-3.042,2.648-4.058,5.823-3.801c15.957,1.291,31.876,1.018,47.666-1.93
		c27.681-5.168,51.273-17.197,67.864-40.795c7.468-10.622,7.138-11.363-4.954-16.276c-19.959-8.11-40.675-9.626-61.757-6.743
		c-12.519,1.712-24.737,4.895-36.116,10.683c-1.955-1.13-0.973-2.996-0.973-4.493c-0.001-7.325,0.165-14.656-1.444-21.864
		c-6.63-29.682-24.634-51.85-47.002-71.146c-2.296-1.98-3.694-1.209-5.161,0.976c-2.881,4.291-5.539,8.688-7.554,13.464
		c-8.977,21.279-10.916,43.479-7.505,66.041c2.802,18.533,9.232,35.717,23.072,49.262c4.438,4.343,4.401,4.384-0.753,8.233
		c-0.399,0.299-0.834,0.55-1.246,0.83c-31.246,21.217-66.332,31.196-103.521,31.305c-177.967,0.522-355.936,0.234-533.904,0.243
		C172.734,207.169,170.405,207.299,168.076,207.368z"/>
	<path fill-rule="evenodd" clip-rule="evenodd" fill="#FEFEFE" d="M483.913,147.169c9.838,4.62,19.292,6.791,29.322,5.346
		c8.886-1.281,13.563-6.223,14.553-15.141c0.3-2.702,0.465-4.406-3.397-3.072c-6.934,2.395-14.119,2.146-21.141,0.128
		c-13.728-3.945-21.676-16.243-21.154-32.441c0.635-19.711,12.188-32.501,33.095-36.554c14.45-2.801,28.819-1.581,43.165,0.948
		c2.209,0.39,2.859,1.073,1.728,3.24c-1.847,3.535-3.466,7.19-5.19,10.79c-0.425,0.885-0.794,2.34-1.802,2.158
		c-5.807-1.044-4.069,3.039-4.081,5.852c-0.06,14.813,0.856,29.624,0.142,44.441c-1.227,25.424-13.035,37.416-38.56,38.864
		c-8.022,0.455-15.938-0.457-23.614-3.078c-1.933-0.66-3.165-1.387-3.108-3.745C484.004,159.258,483.913,153.604,483.913,147.169z
		 M527.988,99.888c-0.104,0-0.207,0-0.31,0c0-2.996,0.479-6.095-0.131-8.961c-0.646-3.031,2.528-7.486-2.202-8.945
		c-3.306-1.02-6.923,0.272-10.19,1.652c-1.067,0.451-2.101,1.021-3.072,1.655c-6.903,4.503-9.495,15.511-5.76,24.344
		c2.851,6.74,9.547,9.547,18.011,7.915c2.901-0.559,3.848-1.811,3.708-4.673C527.833,108.555,527.988,104.218,527.988,99.888z"/>
	<path fill-rule="evenodd" clip-rule="evenodd" fill="#FEFEFE" d="M298.674,82.901c0,15.324-0.112,30.65,0.088,45.972
		c0.044,3.354-0.961,4.583-4.221,5.096c-12.548,1.973-25.123,3.457-37.74,1.126c-18.584-3.433-28.125-15.653-27.792-35.065
		c0.331-19.286,11.721-32.951,29.781-35.667c4.615-0.693,9.271-1.36,13.893-0.186c3.378,0.859,3.884-0.685,3.83-3.609
		c-0.151-8.159,0.106-16.328-0.125-24.483c-0.101-3.547,0.623-5.184,4.608-4.836c4.298,0.374,8.672,0.326,12.98,0.011
		c3.702-0.271,4.846,0.84,4.792,4.671C298.544,51.584,298.674,67.243,298.674,82.901z M276.459,100.336
		c0-4.824-0.024-9.648,0.013-14.472c0.014-1.784-0.222-3.08-2.327-3.765c-6.157-2.003-15.193,0.599-18.99,5.714
		c-4.2,5.66-4.781,17.261-0.931,23.308c4.507,7.08,11.552,7.559,18.987,6.989c2.564-0.196,3.372-1.322,3.292-3.804
		C276.35,109.654,276.458,104.993,276.459,100.336z"/>
	<path fill-rule="evenodd" clip-rule="evenodd" fill="#FEFEFE" d="M558.68,102.264c0.108-30.021,24.624-46.651,51.432-36.233
		c14.567,5.661,19.959,17.515,20.442,31.968c0.449,13.405-2.872,25.792-15.116,33.386c-12.88,7.988-26.684,8.161-40.017,1.334
		C562.704,126.205,558.92,114.308,558.68,102.264z M608.062,100.209c-0.01-4.037-0.589-7.981-2.334-11.651
		c-2.089-4.394-5.424-7.066-10.504-7.178c-5.185-0.113-9.155,2.036-11.316,6.704c-3.854,8.323-3.83,16.79,0.296,25.022
		c2.127,4.244,5.954,6.18,10.667,6.118c4.729-0.063,8.246-2.229,10.468-6.461C607.406,108.823,608.03,104.587,608.062,100.209z"/>
	<path fill-rule="evenodd" clip-rule="evenodd" fill="#FEFEFE" d="M410.477,101.887c0-9.821,0.015-19.642-0.013-29.463
		c-0.006-2.072-0.079-3.771,2.717-4.407c13.347-3.041,26.714-5.553,40.496-3.717c11.23,1.496,21.563,7.263,21.629,22.782
		c0.065,15.14,0.149,30.281,0.357,45.42c0.036,2.629-1.147,2.96-3.308,2.916c-5.158-0.106-10.327-0.206-15.477,0.031
		c-2.996,0.138-3.554-1.064-3.528-3.74c0.116-12.15,0.077-24.302,0.043-36.453c-0.033-12.35-6.284-16.655-18.118-12.82
		c-2.811,0.91-2.356,2.789-2.359,4.696c-0.022,14.647-0.131,29.297,0.073,43.942c0.049,3.535-0.944,4.601-4.434,4.384
		c-4.809-0.298-9.657-0.229-14.475-0.015c-2.813,0.125-3.715-0.721-3.668-3.597C410.577,121.862,410.477,111.874,410.477,101.887z"
		/>
	<path fill-rule="evenodd" clip-rule="evenodd" fill="#FEFEFE" d="M346.333,87.375c0-4.356,0.331-8.046-0.084-11.649
		c-0.521-4.53,1.463-6.422,5.545-7.793c10.577-3.551,21.25-5.376,32.373-3.541c10.097,1.666,15.322,6.742,15.618,16.935
		c0.482,16.631,0.243,33.282,0.314,49.925c0.007,1.585-0.061,2.925-2.217,3.137c-13.229,1.301-26.448,3.474-39.75,1.097
		c-9.444-1.687-14.584-6.675-15.913-14.854c-1.734-10.677,1.788-18.678,10.285-23.37c7.013-3.874,14.766-4.95,22.535-5.965
		c2.322-0.304,5.159,0.432,4.938-3.694c-0.19-3.576-0.92-6.295-5.041-6.641c-8.151-0.684-15.856,1.162-23.341,4.202
		C350.083,85.777,348.583,86.428,346.333,87.375z M380.82,113.06c0-2.069-0.019-3.724,0.005-5.377
		c0.021-1.43-0.593-2.22-2.077-2.036c-4.753,0.585-9.624,0.87-13.816,3.495c-3.428,2.146-4.398,7.063-1.649,9.383
		c4.748,4.007,10.512,2.438,15.697,1.402C382.882,119.147,379.806,115.033,380.82,113.06z"/>
	<path fill-rule="evenodd" clip-rule="evenodd" fill="#FEFEFE" d="M289.944,156.22c1.315-0.861,1.826-1.304,2.417-1.566
		c12.987-5.772,18.251-16.434,18.489-29.943c0.318-18.127,0.442-36.262,0.299-54.391c-0.034-4.269,1.226-5.41,5.284-5.1
		c4.631,0.354,9.312,0.138,13.969,0.057c1.938-0.033,3.103,0.257,3.037,2.656c-0.632,23.26,1.477,46.592-1.412,69.782
		c-1.493,11.991-7.903,20.972-18.763,26.59c-1.464,0.758-2.787,1.74-4.633,0.838C302.684,162.236,296.687,159.43,289.944,156.22z"/>
	<path fill-rule="evenodd" clip-rule="evenodd" fill="#FEFEFE" d="M333.407,43.265c0,10.968,0,10.968-11.138,10.968
		c-11.009,0-11.009,0-11.009-11.163c0-11.532,0-11.532,10.703-11.532C333.407,31.537,333.407,31.537,333.407,43.265z"/>
	<path fill-rule="evenodd" clip-rule="evenodd" fill="#039AC5" d="M176.092,274.719c1.995-0.076,3.989-0.219,5.984-0.221
		c176.977-0.01,353.953-0.01,530.93,0c1.996,0,3.991,0.129,5.987,0.195c-0.09,1.91-1.519,2.957-2.812,3.924
		c-17.665,13.215-35.59,26.09-54.312,37.754c-27.077,16.869-54.859,32.475-83.969,45.672c-17.256,7.824-34.705,15.127-52.584,21.357
		c-26.009,9.063-52.375,16.744-79.622,21.371c-21.089,3.58-42.217,6.15-63.603,6.635c-9.81,0.223-19.582-0.354-29.359-0.939
		c-8.146-10.789-14.789-22.441-20.021-34.904c2.789-1.027,5.583-2.043,8.366-3.086c4.519-1.689,6.447-4.875,4.792-8.861
		c-1.59-3.826-4.732-4.51-8.602-3.238c-18.262,6.008-37.052,9.189-56.16,11.18c-13.001,1.355-26,1.713-39.021,2.158
		c-4.521-5.063-10.416-8.512-15.363-13.096c-17.608-16.314-31.69-35.15-41.166-57.271
		C181.594,294.088,177.706,284.772,176.092,274.719z M373.315,361.106c11.664,0.131,21.355-9.279,21.592-20.967
		c0.235-11.592-9.267-21.445-20.873-21.648c-11.957-0.209-21.734,9.273-21.838,21.178
		C352.095,351.268,361.659,360.975,373.315,361.106z"/>
	<path fill-rule="evenodd" clip-rule="evenodd" fill="#24B7EA" d="M742.038,258.506c-8.181,3.631-16.996,4.764-25.704,5.633
		c-34.712,3.465-69.143,1.609-103.055-6.984c-7.41-1.877-14.671-4.346-21.573-7.748c-5.14-2.533-9.913-5.529-13.292-10.278
		c-1.067-1.5-1.756-2.139-3.37-0.548c-16.207,15.962-36.72,22.49-58.443,25.49c-23.611,3.264-47.137,2.324-70.196-4.58
		c-13.745-4.115-26.351-10.213-36.795-20.285c-1.104-1.064-2.006-2.892-3.753-0.364c-4.885,7.068-12.391,10.481-20.031,13.417
		c-18.632,7.154-38.157,10.203-57.905,12.18c-15.619,1.564-31.278,1.637-46.91,0.855c-14.802-0.74-29.471-2.762-43.521-7.883
		c-7.573-2.76-14.732-6.244-20.211-12.411c-1.273-1.434-2.215-1.95-4.104-0.579c-12.268,8.9-26.398,13.08-41.07,15.798
		c-2.473-17.531-4.339-35.108-4.027-52.851c2.329-0.069,4.658-0.199,6.987-0.199c177.968-0.009,355.937,0.279,533.904-0.243
		c37.189-0.108,72.275-10.088,103.521-31.305c0.412-0.28,0.847-0.531,1.246-0.83c5.154-3.85,5.191-3.891,0.753-8.233
		c-13.84-13.545-20.271-30.729-23.072-49.262c-3.411-22.562-1.472-44.762,7.505-66.041c2.015-4.775,4.673-9.173,7.554-13.464
		c1.467-2.185,2.865-2.956,5.161-0.976c22.368,19.297,40.372,41.465,47.002,71.146c1.609,7.208,1.443,14.539,1.444,21.864
		c0,1.497-0.982,3.363,0.972,4.493c0.636,2.095-1.057,3.277-2.05,4.527c-20.866,26.272-43.236,51.191-67.375,74.508
		c-4.424,4.273-8.68,8.731-13.247,12.845C766.336,237.044,754.161,247.746,742.038,258.506z"/>
	<path fill-rule="evenodd" clip-rule="evenodd" fill="#008AB7" d="M352.733,410.467c9.777,0.586,19.55,1.162,29.359,0.939
		c21.386-0.484,42.514-3.055,63.603-6.635c27.247-4.627,53.613-12.309,79.622-21.371c17.879-6.23,35.328-13.533,52.584-21.357
		c29.109-13.197,56.892-28.803,83.969-45.672c18.722-11.664,36.646-24.539,54.312-37.754c1.293-0.967,2.722-2.014,2.812-3.924
		c27.313,0.002,54.625,0.002,82.618,0.002c-3.325,6.715-7.706,12.453-11.796,18.328c-16.604,23.857-35.839,45.465-57.175,65.143
		c-23.939,22.078-50.397,40.721-78.967,56.383c-43.8,24.012-90.604,39.445-139.545,48.551c-19.375,3.604-38.931,6.15-58.65,7.469
		c-8.767,0.586-17.546,0.779-26.3,1.424c-1.529-0.945-3.003-2.006-4.603-2.816c-13.227-6.707-25.878-14.34-37.556-23.5
		C374.023,435.481,362.039,424.27,352.733,410.467z"/>
	<path fill-rule="evenodd" clip-rule="evenodd" fill="#FEFEFE" d="M352.733,410.467c9.306,13.803,21.29,25.014,34.287,35.209
		c11.678,9.16,24.329,16.793,37.556,23.5c1.6,0.811,3.073,1.871,4.603,2.816c-32.328,0.889-64.47-0.453-96.344-6.617
		c-52.205-10.094-97.255-33.752-135.577-70.455c-2.627-2.516-5.201-5.088-8.859-8.67c49.357,2.477,97.292,1.531,144.314-10.688
		C337.944,388.026,344.587,399.678,352.733,410.467z"/>
	<path fill-rule="evenodd" clip-rule="evenodd" fill="#039AC5" d="M742.038,258.506c12.123-10.76,24.298-21.462,36.343-32.307
		c4.567-4.113,8.823-8.571,13.247-12.845c24.139-23.316,46.509-48.235,67.375-74.508c0.993-1.25,2.686-2.433,2.05-4.527
		c11.38-5.788,23.599-8.971,36.117-10.683c21.082-2.883,41.798-1.367,61.757,6.743c12.092,4.913,12.422,5.654,4.954,16.276
		c-16.591,23.598-40.184,35.627-67.864,40.795c-15.79,2.947-31.709,3.221-47.666,1.93c-3.175-0.257-4.644,0.759-5.823,3.801
		c-8.433,21.74-18.208,42.859-29.692,63.182c-1.611,2.852-3.463,3.67-6.443,2.936c-12.333-3.045-24.398-6.801-34.838-14.336
		c-2.37-1.711-3.479-1.239-5.272,0.615C759.615,252.467,751.363,256.528,742.038,258.506z"/>
	<path fill-rule="evenodd" clip-rule="evenodd" fill="#008AB7" d="M176.092,274.719c1.613,10.053,5.501,19.369,9.467,28.629
		c9.476,22.121,23.558,40.957,41.166,57.271c4.947,4.584,10.842,8.033,15.363,13.096c-9.439,0.826-18.879,0.787-28.32,0.016
		c-1.816-0.148-3.638-0.348-5.455-0.328c-9.136,0.105-18.247-0.275-27.36-0.945c-2.394-0.176-3.451-1.445-4.664-3.104
		c-17.476-23.898-29.323-50.367-36.242-79.096c-0.968-4.018-1.855-8.055-2.771-12.086c-0.549-2.414,0.017-3.77,2.902-3.73
		C152.148,274.604,164.121,274.637,176.092,274.719z"/>
	<path fill-rule="evenodd" clip-rule="evenodd" fill="#039AC5" d="M168.076,207.368c-0.312,17.743,1.555,35.32,4.027,52.851
		c-10.922,2.275-21.973,3.232-33.117,3.207c-1.787-0.004-3.703,0.375-3.948-2.451c-1.436-16.565-1.804-33.125-0.468-49.724
		c0.263-3.267,1.492-4.146,4.595-4.08C148.8,207.377,158.439,207.322,168.076,207.368z"/>
	<path fill-rule="evenodd" clip-rule="evenodd" fill="#0B3021" d="M527.988,99.888c0,4.33-0.155,8.667,0.054,12.987
		c0.14,2.862-0.807,4.114-3.708,4.673c-8.464,1.632-15.16-1.175-18.011-7.915c-3.735-8.833-1.144-19.841,5.76-24.344
		c0.972-0.634,2.005-1.204,3.072-1.655c3.268-1.38,6.885-2.672,10.19-1.652c4.73,1.459,1.557,5.914,2.202,8.945
		c0.609,2.866,0.131,5.965,0.131,8.961C527.781,99.888,527.885,99.888,527.988,99.888z"/>
	<path fill-rule="evenodd" clip-rule="evenodd" fill="#0B3021" d="M276.458,100.336c0,4.657-0.109,9.318,0.043,13.971
		c0.081,2.481-0.727,3.607-3.292,3.804c-7.435,0.569-14.479,0.091-18.987-6.989c-3.85-6.047-3.269-17.647,0.931-23.308
		c3.797-5.115,12.833-7.717,18.99-5.714c2.105,0.685,2.341,1.98,2.327,3.765C276.435,90.688,276.459,95.512,276.458,100.336z"/>
	<path fill-rule="evenodd" clip-rule="evenodd" fill="#0B3021" d="M608.065,100.213c-0.035,4.374-0.659,8.61-2.728,12.551
		c-2.222,4.231-5.738,6.398-10.468,6.461c-4.713,0.062-8.54-1.874-10.667-6.118c-4.126-8.232-4.149-16.699-0.296-25.022
		c2.161-4.668,6.132-6.817,11.316-6.704c5.08,0.111,8.415,2.784,10.504,7.178C607.473,92.228,608.052,96.172,608.065,100.213z"/>
	<path fill-rule="evenodd" clip-rule="evenodd" fill="#0B3021" d="M380.82,113.06c-1.015,1.974,2.062,6.088-1.841,6.867
		c-5.186,1.035-10.949,2.604-15.697-1.402c-2.749-2.319-1.778-7.236,1.649-9.383c4.192-2.625,9.063-2.91,13.816-3.495
		c1.484-0.184,2.098,0.606,2.077,2.036C380.802,109.336,380.82,110.99,380.82,113.06z"/>
	<path fill-rule="evenodd" clip-rule="evenodd" fill="#FEFEFE" d="M373.315,361.106c-11.656-0.131-21.221-9.838-21.119-21.438
		c0.104-11.904,9.881-21.387,21.838-21.178c11.606,0.203,21.108,10.057,20.873,21.648
		C394.671,351.827,384.979,361.237,373.315,361.106z M378.907,325.627c-7.563-2.75-15.152-0.023-18.822,6.436
		c-3.66,6.443-2.253,14.563,3.376,19.471c5.62,4.9,13.973,5.076,19.718,0.418c5.579-4.523,7.313-11.727,4.077-17.619
		c-2.834,2.76-5.937,3.865-9.141,0.748C374.855,331.911,376.084,328.817,378.907,325.627z"/>
	<path fill-rule="evenodd" clip-rule="evenodd" fill="#3A4E56" d="M378.907,325.627c-2.823,3.189-4.052,6.283-0.792,9.453
		c3.204,3.117,6.307,2.012,9.141-0.748c3.235,5.893,1.502,13.096-4.077,17.619c-5.745,4.658-14.098,4.482-19.718-0.418
		c-5.629-4.908-7.036-13.027-3.376-19.471C363.755,325.604,371.344,322.877,378.907,325.627z"/>
</g>
</svg>
